# xmcd CD database file
#
# Track frame offsets:
#	151
#	17488
#	30052
#	42641
#	54739
#	66194
#	78175
#	91360
#	104554
#	121035
#	132534
#	143057
#	158712
#
# Disc length: 2348 seconds
#
# Revision: 1
# Processed by: cddbd v1.5.2PL0 Copyright (c) Steve Scherf et al.
# Submitted via: CDex 1.70beta2
#
DISCID=a4092a0d
DTITLE=Jonasz , Michel  - Michel Jonasz Et Le King Set
DYEAR=1900
DGENRE=Blues
TTITLE0=(le King Star) Apesanteur (Charbonnier-Goldstein)
TTITLE1=(le King Star) Froiduglu (Jonasz-Goldstein)
TTITLE2=(le King Star) On A Perdu Un Président (Lima-Mali-Goldstein-Saka)
TTITLE3=(le King Star) Il Faut Marier Marie, Maman (Davert)
TTITLE4=(le King Star) Jezebel (Aznavour-Shanklin)
TTITLE5=(le King Star) Mon Brouillard (Jonasz-Goldstein)
TTITLE6=(le King Star) Au Bout De Mon Chemin (Peigné-Goldstein)
TTITLE7=(le King Star) Fleur D'ombre (Peigné-Charbonnier)
TTITLE8=(michel Jonasz) Ô Mon Amour Du Bout Du Monde (Charbonnier-Goldstein)
TTITLE9=(michel Jonasz) Mais Dans Un An Ou Deux (Jonasz-Goldstein)
TTITLE10=(michel Jonasz) Le Vent Ne Ramène Jamais Les Nuages D'autrefois (Jonaszr-Goldstein)
TTITLE11=(michel Jonasz) Adieu La Terre (Charbonnier-Goldstein)
TTITLE12=Apesanteur (Instrumental) (Charbonnier-Goldstein)
EXTD=
EXTT0=
EXTT1=
EXTT2=
EXTT3=
EXTT4=
EXTT5=
EXTT6=
EXTT7=
EXTT8=
EXTT9=
EXTT10=
EXTT11=
EXTT12=
PLAYORDER=
